<svg width="100" height="101" viewBox="0 0 100 101" fill="none" xmlns="http://www.w3.org/2000/svg">
<path d="M99.8031 29.5219C99.7688 29.5219 99.7531 29.5063 99.7406 29.5063C99.7049 29.5091 99.6705 29.521 99.6406 29.5407C36.6031 35.8875 6.98125 63.2938 0 70.0375L0.928125 71.5H11.9438C40.5719 42.7094 79.2594 33.1532 99.7219 30.0125L99.7375 30.0282C99.75 30.0282 99.7656 29.9938 99.7844 29.9938C99.8429 29.9862 99.8967 29.9577 99.9358 29.9134C99.9749 29.8691 99.9966 29.8122 99.9969 29.7532C99.9969 29.6375 99.9125 29.5563 99.8 29.525L99.8031 29.5219ZM1.57812 44.2844L0.9125 45.5375L14.4375 55.4C17.1777 53.8082 19.9743 52.3156 22.8219 50.925L13.7562 44.2844H1.57812ZM31.6406 57.3657C29.2556 59.1213 26.9264 60.9513 24.6562 62.8532L36.5406 71.4938H48.8625L49.3844 70.3719L31.6406 57.3657Z" fill="white"/>
</svg>
